<?xml version="1.0" standalone="no"?>
<!DOCTYPE svg PUBLIC "-//W3C//DTD SVG 20010904//EN"
 "http://www.w3.org/TR/2001/REC-SVG-20010904/DTD/svg10.dtd">
<svg version="1.0" xmlns="http://www.w3.org/2000/svg"
 width="400" height="200" viewBox="200 10 300 390" fill="none" 
 preserveAspectRatio="xMidYMid meet">

<g transform="translate(0.000000,200.000000) scale(0.100000,-0.100000)"
fill="#000000" stroke="none">
<path d="M380 1394 c-145 -40 -240 -142 -271 -291 -30 -146 53 -303 201 -380
50 -25 65 -28 155 -28 87 0 107 3 156 26 76 36 129 86 170 161 32 60 34 68 34
163 0 89 -3 106 -28 157 -74 150 -260 236 -417 192z m138 -100 c51 -7 52 -7
52 -40 l0 -34 -50 0 -50 0 0 -55 c0 -30 -1 -58 -2 -62 -2 -5 18 -9 45 -11 46
-3 47 -4 47 -38 0 -34 0 -34 -45 -34 l-45 0 0 -80 0 -80 45 0 c45 0 45 0 45
-35 l0 -35 -84 0 -84 0 -6 123 c-7 144 -7 141 0 280 l5 107 37 0 c20 0 61 -3
90 -6z"/>
<path d="M1046 1382 c-3 -3 -6 -70 -6 -149 0 -156 2 -162 55 -149 28 7 36 46
10 46 -13 0 -15 20 -15 124 0 114 -2 124 -19 129 -11 3 -22 2 -25 -1z"/>
<path d="M918 1312 c-3 -37 -3 -104 0 -150 l5 -82 49 0 c45 0 49 2 46 22 -2
15 -12 25 -28 28 -14 3 -25 11 -24 18 1 6 2 26 3 42 1 25 5 30 26 30 18 0 25
5 25 20 0 16 -7 20 -31 20 -29 0 -30 2 -27 38 3 32 7 37 31 40 19 2 27 9 27
23 0 16 -7 19 -49 19 l-48 0 -5 -68z"/>
<path d="M1138 1308 c-2 -40 -1 -107 2 -148 l5 -75 48 -3 c46 -3 48 -2 45 20
-2 15 -11 24 -25 26 -20 3 -23 9 -23 48 0 40 2 44 25 44 35 0 35 37 0 42 -14
2 -25 6 -25 11 0 4 0 21 0 37 0 26 3 30 29 30 19 0 31 6 33 16 2 9 16 -47 33
-125 18 -90 34 -142 42 -142 7 -1 18 -2 25 -3 7 -1 20 49 35 139 12 77 23 143
23 148 0 4 -11 7 -23 7 -22 0 -25 -6 -37 -87 -14 -95 -15 -95 -40 30 l-11 57
-78 0 -78 0 -5 -72z"/>
<path d="M1443 1238 c-16 -102 -19 -144 -11 -149 19 -12 38 2 38 27 0 35 27
30 35 -6 7 -32 32 -40 42 -14 5 15 -20 217 -34 267 -2 9 -14 17 -26 17 -21 0
-24 -9 -44 -142z m57 -35 c0 -13 -4 -23 -10 -23 -5 0 -10 17 -10 38 0 27 3 33
10 22 5 -8 10 -25 10 -37z"/>
<path d="M1570 1360 c0 -13 7 -20 20 -20 19 0 20 -7 20 -131 0 -130 0 -130 23
-127 23 3 24 8 26 216 1 30 5 42 16 42 8 0 15 9 15 20 0 18 -7 20 -60 20 -53
0 -60 -2 -60 -20z"/>
<path d="M1702 1233 l3 -148 50 0 c43 0 50 3 50 20 0 14 -8 21 -27 23 -26 3
-28 7 -28 47 0 40 2 44 28 47 16 2 27 9 27 18 0 9 -11 16 -27 18 -25 3 -28 7
-28 43 0 37 2 39 30 39 23 0 30 4 30 20 0 18 -7 20 -55 20 l-56 0 3 -147z"/>
<path d="M917 994 c-4 -4 -7 -69 -7 -145 0 -150 -1 -149 64 -149 48 0 56 15
56 102 l0 78 -30 0 c-29 0 -31 -2 -26 -32 11 -67 11 -101 -1 -105 -8 -3 -13
26 -15 106 -3 100 -1 111 15 111 9 0 17 -7 17 -16 0 -9 7 -14 18 -12 11 2 17
13 17 33 0 29 -2 30 -50 33 -28 2 -54 0 -58 -4z"/>
<path d="M1040 997 c0 -2 11 -37 25 -77 18 -52 25 -95 25 -147 0 -71 1 -74 23
-71 21 3 22 9 28 98 3 52 10 106 16 120 5 14 13 37 17 53 6 24 4 27 -18 27
-21 0 -26 -6 -32 -35 -3 -19 -10 -35 -14 -35 -4 0 -11 16 -14 35 -6 29 -11 35
-31 35 -14 0 -25 -1 -25 -3z"/>
<path d="M1190 850 c0 -141 1 -150 19 -150 23 0 31 18 32 78 l1 47 13 -48 c7
-27 15 -51 18 -53 2 -3 11 17 18 43 l14 48 3 -57 c3 -50 6 -58 22 -58 19 0 20
8 20 150 l0 150 -25 0 c-19 0 -25 -5 -26 -22 0 -13 -6 -45 -13 -73 l-12 -50
-18 73 c-16 64 -21 72 -42 72 l-24 0 0 -150z"/>
</g>
</svg>
