<?xml version="1.0" standalone="no"?>
<!DOCTYPE svg PUBLIC "-//W3C//DTD SVG 20010904//EN"
 "http://www.w3.org/TR/2001/REC-SVG-20010904/DTD/svg10.dtd">
<svg version="1.0" xmlns="http://www.w3.org/2000/svg"
 width="33" height="32" viewBox="0 0 60 60" fill="none"
>

<g transform="translate(0.000000,60.000000) scale(0.100000,-0.100000)"
fill="#000000" stroke="none">
<path d="M140 593 c-8 -3 -34 -24 -57 -46 -42 -41 -43 -42 -43 -109 0 -39 4
-68 10 -68 6 0 10 29 10 68 0 65 1 68 40 105 39 36 41 37 120 37 72 0 80 -2
80 -19 0 -10 11 -26 25 -35 23 -15 25 -23 25 -91 0 -43 -4 -75 -10 -75 -5 0
-10 20 -10 44 0 73 -32 91 -151 84 -91 -5 -109 -23 -109 -109 0 -105 47 -169
124 -169 28 0 45 -8 71 -35 32 -31 35 -39 35 -93 0 -62 11 -82 45 -82 32 0 45
20 45 66 l0 43 53 4 52 3 -62 2 -63 2 0 -50 c0 -47 -2 -50 -25 -50 -26 0 -26
1 -23 68 3 66 3 67 31 65 15 -1 27 3 27 8 0 5 -21 9 -46 8 -47 -3 -74 15 -74
48 0 10 -10 12 -38 7 -27 -4 -49 -1 -70 10 -51 26 -62 52 -62 138 0 94 5 98
118 98 99 0 112 -11 112 -96 0 -32 -7 -72 -15 -87 -10 -21 -11 -27 -2 -25 6 3
17 19 23 36 5 18 15 37 22 44 7 7 12 43 12 93 0 69 -3 85 -20 100 -11 10 -20
26 -20 35 0 10 -7 21 -16 24 -19 7 -143 7 -164 -1z"/>
<path d="M232 370 c0 -14 2 -19 5 -12 2 6 2 18 0 25 -3 6 -5 1 -5 -13z"/>
<path d="M160 370 c0 -5 5 -10 10 -10 6 0 10 5 10 10 0 6 -4 10 -10 10 -5 0
-10 -4 -10 -10z"/>
<path d="M80 159 c-30 -15 -61 -38 -67 -51 -15 -28 -17 -98 -3 -98 6 0 10 18
10 41 0 46 14 79 35 79 10 0 15 -18 18 -67 l3 -68 2 73 c2 83 17 99 56 63 30
-29 85 -37 111 -17 19 14 17 14 -22 9 -49 -6 -104 20 -84 40 13 13 15 28 4 26
-5 -1 -33 -14 -63 -30z"/>
<path d="M516 154 c-3 -9 -6 -31 -6 -49 0 -33 -1 -34 -47 -38 -48 -3 -48 -3 9
-5 l57 -2 3 48 c3 39 6 47 23 47 18 0 20 -8 23 -67 l3 -68 -31 0 c-18 0 -29
-4 -25 -10 11 -17 54 -11 65 9 11 21 14 110 4 135 -4 10 -18 16 -39 16 -21 0
-35 -6 -39 -16z"/>
</g>
</svg>
